<svg
    width="200"
    height="53"
    fill="none"
    xmlns="http://www.w3.org/2000/svg"
>
    <g clip-path="url(#a)">
        <path
            d="M147 3.797C147 1.7 148.754 0 150.917 0h45.166C198.246 0 200 1.7 200 3.797v45.407C200 51.3 198.246 53 196.083 53h-45.166c-2.163 0-3.917-1.7-3.917-3.795V3.797Z"
            fill="#069"
        />
        <path
            d="M0 45h21.905v-7.325H7.928V9.734H0V45Zm32.995 0V20.71h-7.928V45h7.928Zm-3.963-27.607c2.764 0 4.484-1.865 4.484-4.197C33.466 10.813 31.796 9 29.084 9c-2.712 0-4.485 1.813-4.485 4.196 0 2.332 1.72 4.197 4.38 4.197h.053ZM36.675 45h7.928V31.434c0-.726.051-1.451.261-1.969.572-1.45 1.877-2.953 4.067-2.953 2.87 0 4.018 2.228 4.018 5.492v12.995h7.926V31.072c0-7.462-3.911-10.933-9.128-10.933-4.276 0-6.154 2.434-7.197 4.093h.053v-3.523h-7.928c.105 2.28 0 24.291 0 24.291ZM72.06 9.734h-7.927V45h7.927v-7.876l1.981-2.54L80.247 45H90L79.57 29.921l9.126-10.258h-9.543s-6.52 9.177-7.094 10.267V9.734Z"
            fill="#fff"
        />
        <path
            d="M111.473 34.547c.107-.609.267-1.777.267-3.099 0-6.132-3.193-12.358-11.598-12.358C91.15 19.09 87 26.023 87 32.312c0 7.778 5.055 12.635 13.886 12.635 3.512 0 6.756-.504 9.417-1.568l-1.064-5.207c-2.182.705-4.417 1.059-7.182 1.059-3.778 0-7.075-1.513-7.342-4.735l16.758.05v.001Zm-16.81-5.334c.212-2.024 1.596-5.011 5.054-5.011 3.67 0 4.522 3.188 4.522 5.01h-9.577ZM131.7 10v11.923h-.106c-1.171-1.67-3.618-2.783-6.862-2.783-6.225 0-11.705 4.858-11.652 13.157 0 7.692 4.948 12.702 11.119 12.702 3.352 0 6.543-1.418 8.14-4.15h.159l.32 3.593H140c-.106-1.67-.213-4.554-.213-7.388V10H131.7Zm0 23.461c0 .606-.053 1.215-.16 1.72-.477 2.177-2.393 3.693-4.734 3.693-3.351 0-5.533-2.63-5.533-6.78 0-3.896 1.864-7.034 5.587-7.034 2.5 0 4.255 1.67 4.734 3.744.106.457.106.963.106 1.418v3.24ZM163.399 45V20.71h-7.931V45h7.931Zm-3.964-27.607c2.765 0 4.487-1.865 4.487-4.196C163.87 10.813 162.2 9 159.488 9 156.773 9 155 10.813 155 13.197c0 2.33 1.721 4.196 4.383 4.196h.052ZM167.789 45h7.931V31.436c0-.725.052-1.452.262-1.97.573-1.45 1.878-2.953 4.069-2.953 2.87 0 4.018 2.227 4.018 5.493V45H192V31.072c0-7.46-3.912-10.932-9.131-10.932-4.278 0-6.157 2.434-7.201 4.092h.053V20.71h-7.931c.103 2.279-.001 24.29-.001 24.29Z"
            fill="#fff"
        />
    </g>
    <defs>
        <clipPath id="a">
            <path fill="#fff" d="M0 0h200v53H0z" />
        </clipPath>
    </defs>
</svg>